<svg width="560" height="560" viewBox="0 0 560 560" fill="none" xmlns="http://www.w3.org/2000/svg">
<rect width="560" height="560" rx="144" fill="#019267" fill-opacity="0.08"/>
<g clip-path="url(#clip0_1756_2244)">
<path d="M150.047 355.038C150.047 355.038 149.982 354.689 149.808 354.112C149.625 353.534 149.341 352.728 148.901 351.802C147.993 349.959 146.462 347.64 143.776 345.687C142.446 344.697 140.796 343.808 138.806 343.093C136.826 342.369 134.47 341.828 131.664 341.562C126.09 341.021 118.728 341.544 108.955 344.074C108.955 344.074 110.449 346.21 112.952 349.052C114.227 350.463 115.785 352.04 117.518 353.608C119.288 355.166 121.25 356.706 123.358 358.045C127.594 360.731 132.361 362.601 137.037 362.427C141.704 362.271 146.132 360.043 150.047 355.047V355.038Z" fill="url(#paint0_radial_1756_2244)"/>
<path d="M153.467 353.022C153.467 353.022 153.191 352.811 152.779 352.38C152.357 351.958 151.816 351.317 151.266 350.464C150.157 348.777 149.057 346.22 149.057 342.974C149.075 341.343 149.341 339.555 150.047 337.63C150.762 335.696 151.89 333.624 153.549 331.47C156.905 327.134 162.479 322.449 171.198 317.572C171.198 317.572 171.473 319.442 171.509 322.358C171.546 323.806 171.564 325.493 171.445 327.354C171.363 329.187 171.17 331.185 170.813 333.23C170.134 337.291 168.814 341.59 166.219 345.211C163.606 348.832 159.673 351.912 153.457 353.022H153.467Z" fill="url(#paint1_radial_1756_2244)"/>
<path d="M134.632 322.467C134.632 322.467 134.632 322.119 134.558 321.523C134.494 320.927 134.32 320.093 134.054 319.103C133.779 318.113 133.367 316.976 132.716 315.802C132.065 314.629 131.185 313.41 130.057 312.209C128.911 311.017 127.453 309.853 125.592 308.817C123.722 307.781 121.549 306.837 118.826 306.104C116.121 305.37 112.912 304.829 109.126 304.573C105.349 304.316 101.031 304.334 96.0156 304.756C96.0156 304.756 96.2815 305.352 96.7949 306.351C97.29 307.36 98.1151 308.735 99.1236 310.348C100.16 311.952 101.351 313.786 102.846 315.601C104.331 317.416 106.009 319.258 107.833 320.927C111.592 324.236 115.892 326.858 120.522 327.445C125.124 328.059 129.892 326.684 134.632 322.467Z" fill="url(#paint2_radial_1756_2244)"/>
<path d="M138.357 321.083C138.357 321.083 138.128 320.826 137.789 320.331C137.459 319.836 137 319.121 136.615 318.186C136.23 317.251 135.873 316.105 135.671 314.803C135.469 313.492 135.414 312.025 135.726 310.412C136.019 308.808 136.597 307.084 137.596 305.306C138.577 303.528 140.09 301.667 142.098 299.815C144.115 297.963 146.673 296.111 149.909 294.315C153.154 292.509 157.115 290.758 161.828 289.08C161.828 289.08 161.699 290.978 161.332 293.829C161.149 295.259 160.792 296.945 160.416 298.751C160.031 300.557 159.517 302.501 158.802 304.481C157.5 308.395 155.428 312.475 152.284 315.637C149.093 318.791 144.674 321.092 138.348 321.083H138.357Z" fill="url(#paint3_radial_1756_2244)"/>
<path d="M124.948 287.771C124.948 287.771 125.196 286.387 124.93 284.352C124.737 282.298 124.096 279.603 122.17 276.862C120.328 274.103 117.302 271.279 112.159 268.868C107.125 266.457 100.029 264.413 89.9902 263.441C89.9902 263.441 90.6595 265.99 92.0347 269.565C92.7315 271.343 93.7125 273.36 94.8218 275.441C95.9495 277.513 97.2147 279.649 98.81 281.611C100.369 283.582 102.092 285.406 103.972 286.909C105.86 288.413 107.987 289.577 110.188 290.274C114.625 291.676 119.557 291.117 124.939 287.771H124.948Z" fill="url(#paint4_radial_1756_2244)"/>
<path d="M128.852 287.038C128.852 287.038 128.119 285.864 127.614 283.893C127.174 281.922 127.018 279.145 128.073 276.092C129.2 273.039 131.63 269.712 136.177 266.797C140.835 263.863 147.674 261.379 157.548 259.793C157.548 259.793 157.154 261.608 156.182 264.312C155.706 265.669 155.192 267.237 154.459 268.933C153.744 270.619 152.827 272.434 151.873 274.24C150.883 276.046 149.7 277.852 148.298 279.53C146.904 281.207 145.373 282.757 143.521 284.04C139.836 286.589 135.096 288.119 128.861 287.029L128.852 287.038Z" fill="url(#paint5_radial_1756_2244)"/>
<path d="M121.506 251.89C121.506 251.89 121.625 251.56 121.753 250.973C121.873 250.386 122.056 249.552 122.148 248.525C122.34 246.472 122.148 243.703 120.791 240.651C119.535 237.598 117.05 234.252 112.457 230.915C107.965 227.597 101.391 224.251 91.7188 221.391C91.7188 221.391 91.8838 224.031 92.553 227.817C92.9014 229.705 93.4974 231.887 94.2033 234.151C94.5609 235.279 94.9643 236.434 95.4135 237.58C95.8627 238.726 96.3486 239.872 96.9537 240.99C98.1364 243.227 99.5025 245.354 101.089 247.187C101.877 248.104 102.72 248.947 103.619 249.699C104.517 250.45 105.517 251.111 106.544 251.651C110.678 253.851 115.629 254.191 121.506 251.881V251.89Z" fill="url(#paint6_radial_1756_2244)"/>
<path d="M125.474 251.882C125.474 251.882 125.346 251.562 125.19 250.984C125.025 250.406 124.897 249.581 124.869 248.573C124.814 246.556 125.117 243.788 126.721 240.992C128.436 238.205 131.406 235.391 136.43 233.392C141.555 231.394 148.752 230.239 158.745 230.55C158.745 230.55 158.012 232.246 156.536 234.703C155.812 235.932 155.023 237.371 153.996 238.883C153.492 239.644 152.933 240.423 152.337 241.203C151.732 241.991 151.081 242.779 150.448 243.568C149.156 245.145 147.67 246.685 145.993 248.078C145.149 248.775 144.269 249.426 143.325 250.021C142.39 250.617 141.445 251.158 140.428 251.617C136.366 253.441 131.424 254.092 125.474 251.892V251.882Z" fill="url(#paint7_radial_1756_2244)"/>
<path d="M124.847 215.999C124.847 215.999 125.571 214.798 126.066 212.808C126.625 210.828 127.056 208.096 126.286 204.842C125.461 201.569 123.811 197.857 119.951 193.732C116.109 189.615 110.168 185.069 101.275 180.494C101.275 180.494 101.184 181.136 101.074 182.263C101 183.4 100.954 185.023 100.973 186.948C100.991 188.873 101.092 191.091 101.34 193.429C101.404 194.016 101.468 194.602 101.55 195.198C101.651 195.803 101.77 196.408 101.899 197.013C102.155 198.233 102.458 199.452 102.806 200.662C103.512 203.073 104.438 205.41 105.621 207.51C106.84 209.609 108.399 211.488 110.196 212.946C113.817 215.889 118.612 217.163 124.847 215.999Z" fill="url(#paint8_radial_1756_2244)"/>
<path d="M128.737 216.734C128.737 216.734 128.48 215.368 128.719 213.361C129.021 211.362 129.938 208.731 132.047 206.284C134.091 203.827 137.694 201.663 143.03 200.646C148.393 199.628 155.572 199.802 165.419 201.984C165.419 201.984 165.143 202.369 164.621 203.02C164.135 203.68 163.438 204.615 162.521 205.706C161.605 206.797 160.477 208.044 159.157 209.336C158.827 209.657 158.487 209.987 158.13 210.317C157.8 210.647 157.461 210.986 157.103 211.316C156.397 211.986 155.645 212.655 154.848 213.297C153.252 214.598 151.483 215.827 149.549 216.872C147.651 217.917 145.661 218.788 143.479 219.301C139.134 220.319 134.155 220.025 128.746 216.734H128.737Z" fill="url(#paint9_radial_1756_2244)"/>
<path d="M134.8 181.354C134.8 181.354 135.772 180.319 136.679 178.485C137.596 176.643 138.412 173.984 138.247 170.656C138.183 167.365 137.083 163.368 133.993 158.638C130.848 153.88 125.953 148.518 117.894 142.477C117.894 142.477 117.701 143.091 117.417 144.163C117.142 145.245 116.729 146.748 116.473 148.655C116.188 150.534 115.923 152.725 115.794 155.063C115.73 156.227 115.693 157.428 115.703 158.638C115.712 159.857 115.748 161.068 115.913 162.333C116.519 167.329 118.004 172.178 120.974 175.68C122.441 177.431 124.366 178.879 126.649 179.851C128.95 180.841 131.609 181.345 134.8 181.373V181.354Z" fill="url(#paint10_radial_1756_2244)"/>
<path d="M146.937 159.576C146.937 159.576 148.349 159.686 150.357 159.236C152.365 158.796 154.95 157.76 157.435 155.533C159.956 153.415 162.377 150.051 164.118 144.67C165.842 139.234 166.942 132.056 166.594 121.99C166.594 121.99 165.998 122.229 164.98 122.678C163.972 123.136 162.542 123.769 160.891 124.759C159.241 125.721 157.38 126.895 155.482 128.251C154.529 128.93 153.575 129.654 152.64 130.424C151.705 131.194 150.77 131.982 149.899 132.908C146.387 136.511 143.545 140.719 142.693 145.229C142.253 147.466 142.335 149.877 143.014 152.26C143.692 154.671 144.966 157.055 146.956 159.557L146.937 159.576Z" fill="url(#paint11_radial_1756_2244)"/>
<path d="M138.498 182.797C138.498 182.797 138.535 181.422 139.195 179.515C139.873 177.609 141.138 175.133 143.651 173.107C146.273 171.127 150.068 169.569 155.496 169.477C160.877 169.358 168.129 170.843 177.398 174.62C177.398 174.62 177.059 174.968 176.436 175.537C175.812 176.114 174.859 176.894 173.804 177.856C172.723 178.8 171.402 179.864 169.88 180.945C169.12 181.486 168.313 182.027 167.46 182.559C166.607 183.091 165.691 183.604 164.82 184.117C161.262 186.152 157.045 187.821 152.516 188.032C150.233 188.132 147.96 187.885 145.603 187.078C143.265 186.281 140.818 184.906 138.498 182.797Z" fill="url(#paint12_radial_1756_2244)"/>
<path d="M155.694 363.188C155.511 362.94 137.45 337.95 127.851 299.467C122.203 276.851 120.525 254.053 122.854 231.694C125.769 203.753 134.983 176.434 150.257 150.51L153.054 152.151C138.036 177.645 128.969 204.495 126.09 231.942C123.789 253.906 125.43 276.32 130.968 298.55C140.402 336.465 158.142 361.033 158.316 361.272L155.703 363.188H155.694Z" fill="url(#paint13_radial_1756_2244)"/>
<path d="M409.949 355.04C409.949 355.04 410.013 354.691 410.188 354.114C410.371 353.536 410.655 352.73 411.095 351.804C412.003 349.961 413.534 347.642 416.22 345.689C417.55 344.699 419.2 343.81 421.189 343.095C423.17 342.371 425.526 341.83 428.331 341.564C433.905 341.023 441.267 341.546 451.041 344.076C451.041 344.076 449.546 346.212 447.043 349.054C445.769 350.465 444.21 352.042 442.478 353.61C440.708 355.168 438.746 356.708 436.638 358.047C432.402 360.733 427.635 362.603 422.959 362.428C418.292 362.273 413.864 360.045 409.949 355.049V355.04Z" fill="url(#paint14_radial_1756_2244)"/>
<path d="M406.541 353.022C406.541 353.022 406.816 352.811 407.229 352.38C407.651 351.958 408.192 351.317 408.742 350.464C409.851 348.777 410.951 346.22 410.951 342.974C410.933 341.343 410.667 339.555 409.961 337.63C409.246 335.696 408.118 333.624 406.459 331.47C403.103 327.134 397.529 322.449 388.81 317.572C388.81 317.572 388.535 319.442 388.498 322.358C388.462 323.806 388.443 325.493 388.563 327.354C388.645 329.187 388.838 331.185 389.195 333.23C389.874 337.291 391.194 341.59 393.788 345.211C396.401 348.832 400.334 351.912 406.55 353.022H406.541Z" fill="url(#paint15_radial_1756_2244)"/>
<path d="M425.369 322.467C425.369 322.467 425.369 322.119 425.443 321.523C425.507 320.927 425.681 320.093 425.947 319.103C426.222 318.113 426.634 316.976 427.285 315.802C427.936 314.629 428.816 313.41 429.944 312.209C431.09 311.017 432.548 309.853 434.409 308.817C436.279 307.781 438.452 306.837 441.175 306.104C443.88 305.37 447.088 304.829 450.875 304.573C454.652 304.316 458.97 304.334 463.985 304.756C463.985 304.756 463.719 305.352 463.206 306.351C462.711 307.36 461.886 308.735 460.877 310.348C459.841 311.952 458.649 313.786 457.155 315.601C455.67 317.416 453.992 319.258 452.168 320.927C448.409 324.236 444.109 326.858 439.479 327.445C434.876 328.059 430.109 326.684 425.369 322.467Z" fill="url(#paint16_radial_1756_2244)"/>
<path d="M421.644 321.083C421.644 321.083 421.873 320.826 422.213 320.331C422.543 319.836 423.001 319.121 423.386 318.186C423.771 317.251 424.129 316.105 424.33 314.803C424.532 313.492 424.587 312.025 424.275 310.412C423.982 308.808 423.404 307.084 422.405 305.306C421.424 303.528 419.911 301.667 417.904 299.815C415.887 297.963 413.329 296.111 410.092 294.315C406.847 292.509 402.886 290.758 398.174 289.08C398.174 289.08 398.302 290.978 398.669 293.829C398.852 295.259 399.21 296.945 399.586 298.751C399.971 300.557 400.484 302.501 401.19 304.481C402.492 308.395 404.564 312.475 407.709 315.637C410.899 318.791 415.318 321.092 421.644 321.083Z" fill="url(#paint17_radial_1756_2244)"/>
<path d="M435.056 287.771C435.056 287.771 434.808 286.387 435.074 284.352C435.267 282.298 435.909 279.603 437.834 276.862C439.677 274.103 442.702 271.279 447.845 268.868C452.879 266.457 459.975 264.413 470.014 263.441C470.014 263.441 469.345 265.99 467.969 269.565C467.273 271.343 466.292 273.36 465.182 275.441C464.055 277.513 462.789 279.649 461.194 281.611C459.636 283.582 457.912 285.406 456.033 286.909C454.144 288.413 452.017 289.577 449.817 290.274C445.379 291.676 440.447 291.117 435.065 287.771H435.056Z" fill="url(#paint18_radial_1756_2244)"/>
<path d="M431.157 287.038C431.157 287.038 431.891 285.864 432.395 283.893C432.835 281.922 432.991 279.145 431.936 276.092C430.809 273.039 428.379 269.712 423.832 266.797C419.174 263.863 412.335 261.379 402.461 259.793C402.461 259.793 402.855 261.608 403.827 264.312C404.304 265.669 404.817 267.237 405.551 268.933C406.266 270.619 407.183 272.434 408.136 274.24C409.126 276.046 410.309 277.852 411.712 279.53C413.105 281.207 414.636 282.757 416.488 284.04C420.174 286.589 424.914 288.119 431.148 287.029L431.157 287.038Z" fill="url(#paint19_radial_1756_2244)"/>
<path d="M438.492 251.89C438.492 251.89 438.373 251.56 438.244 250.973C438.125 250.386 437.942 249.552 437.85 248.525C437.658 246.472 437.85 243.703 439.207 240.651C440.463 237.598 442.948 234.252 447.541 230.915C452.033 227.597 458.607 224.251 468.279 221.391C468.279 221.391 468.114 224.031 467.445 227.817C467.097 229.705 466.501 231.887 465.795 234.151C465.437 235.279 465.034 236.434 464.584 237.58C464.135 238.726 463.649 239.872 463.044 240.99C461.862 243.227 460.496 245.354 458.909 247.187C458.121 248.104 457.277 248.947 456.379 249.699C455.481 250.45 454.481 251.111 453.454 251.651C449.32 253.851 444.369 254.191 438.492 251.881V251.89Z" fill="url(#paint20_radial_1756_2244)"/>
<path d="M434.525 251.882C434.525 251.882 434.653 251.562 434.809 250.984C434.974 250.406 435.103 249.581 435.13 248.573C435.185 246.556 434.883 243.788 433.278 240.992C431.564 238.205 428.593 235.391 423.569 233.392C418.444 231.394 411.247 230.239 401.254 230.55C401.254 230.55 401.987 232.246 403.463 234.703C404.188 235.932 404.976 237.371 406.003 238.883C406.507 239.644 407.066 240.423 407.662 241.203C408.268 241.991 408.918 242.779 409.551 243.568C410.844 245.145 412.329 246.685 414.007 248.078C414.85 248.775 415.73 249.426 416.675 250.021C417.61 250.617 418.554 251.158 419.572 251.617C423.633 253.441 428.575 254.092 434.525 251.892V251.882Z" fill="url(#paint21_radial_1756_2244)"/>
<path d="M435.157 215.999C435.157 215.999 434.433 214.798 433.937 212.808C433.378 210.828 432.947 208.096 433.717 204.842C434.543 201.569 436.193 197.857 440.053 193.732C443.894 189.615 449.835 185.069 458.728 180.494C458.728 180.494 458.82 181.136 458.93 182.263C459.003 183.4 459.049 185.023 459.031 186.948C459.012 188.873 458.911 191.091 458.664 193.429C458.6 194.016 458.536 194.602 458.453 195.198C458.352 195.803 458.233 196.408 458.105 197.013C457.848 198.233 457.545 199.452 457.197 200.662C456.491 203.073 455.565 205.41 454.382 207.51C453.163 209.609 451.604 211.488 449.807 212.946C446.186 215.889 441.391 217.163 435.157 215.999Z" fill="url(#paint22_radial_1756_2244)"/>
<path d="M431.256 216.734C431.256 216.734 431.513 215.368 431.274 213.361C430.972 211.362 430.055 208.731 427.946 206.284C425.902 203.827 422.299 201.663 416.963 200.646C411.599 199.628 404.421 199.802 394.574 201.984C394.574 201.984 394.849 202.369 395.372 203.02C395.858 203.68 396.555 204.615 397.471 205.706C398.388 206.797 399.516 208.044 400.836 209.336C401.166 209.657 401.505 209.987 401.863 210.317C402.193 210.647 402.532 210.986 402.89 211.316C403.596 211.986 404.347 212.655 405.145 213.297C406.74 214.598 408.51 215.827 410.444 216.872C412.342 217.917 414.332 218.788 416.514 219.301C420.859 220.319 425.837 220.025 431.247 216.734H431.256Z" fill="url(#paint23_radial_1756_2244)"/>
<path d="M425.193 181.354C425.193 181.354 424.221 180.319 423.314 178.485C422.397 176.643 421.581 173.984 421.746 170.656C421.81 167.365 422.91 163.368 426 158.638C429.145 153.88 434.04 148.518 442.099 142.477C442.099 142.477 442.292 143.091 442.576 144.163C442.851 145.245 443.264 146.748 443.52 148.655C443.804 150.534 444.07 152.725 444.199 155.063C444.263 156.227 444.3 157.428 444.29 158.638C444.281 159.857 444.245 161.068 444.08 162.333C443.474 167.329 441.989 172.178 439.019 175.68C437.552 177.431 435.627 178.879 433.344 179.851C431.042 180.841 428.384 181.345 425.193 181.373V181.354Z" fill="url(#paint24_radial_1756_2244)"/>
<path d="M413.065 159.576C413.065 159.576 411.653 159.686 409.645 159.236C407.637 158.796 405.052 157.76 402.567 155.533C400.046 153.415 397.625 150.051 395.884 144.67C394.16 139.234 393.06 132.056 393.408 121.99C393.408 121.99 394.004 122.229 395.022 122.678C396.03 123.136 397.46 123.769 399.111 124.759C400.761 125.721 402.622 126.895 404.52 128.251C405.473 128.93 406.427 129.654 407.362 130.424C408.297 131.194 409.232 131.982 410.103 132.908C413.615 136.511 416.457 140.719 417.309 145.229C417.749 147.466 417.667 149.877 416.988 152.26C416.31 154.671 415.036 157.055 413.046 159.557L413.065 159.576Z" fill="url(#paint25_radial_1756_2244)"/>
<path d="M421.5 182.795C421.5 182.795 421.463 181.42 420.803 179.513C420.125 177.607 418.859 175.131 416.347 173.106C413.725 171.125 409.93 169.567 404.502 169.475C399.121 169.356 391.869 170.841 382.6 174.618C382.6 174.618 382.939 174.966 383.562 175.535C384.186 176.112 385.139 176.892 386.194 177.854C387.275 178.798 388.596 179.862 390.117 180.943C390.878 181.484 391.685 182.025 392.538 182.557C393.39 183.089 394.307 183.602 395.178 184.115C398.735 186.15 402.953 187.819 407.482 188.03C409.765 188.131 412.038 187.883 414.395 187.076C416.732 186.279 419.18 184.904 421.5 182.795Z" fill="url(#paint26_radial_1756_2244)"/>
<path d="M404.31 363.188L401.697 361.272C401.871 361.024 419.612 336.465 429.046 298.55C434.583 276.32 436.215 253.906 433.923 231.942C431.054 204.486 421.977 177.645 406.96 152.151L409.756 150.51C425.021 176.434 434.244 203.753 437.16 231.694C439.488 254.053 437.81 276.851 432.163 299.467C422.555 337.96 404.494 362.94 404.31 363.188Z" fill="url(#paint27_radial_1756_2244)"/>
<path d="M346.069 321.552C382.556 285.068 382.556 225.916 346.069 189.433C309.581 152.949 250.423 152.949 213.936 189.433C177.448 225.916 177.448 285.068 213.936 321.552C250.423 358.036 309.581 358.036 346.069 321.552Z" fill="url(#paint28_linear_1756_2244)"/>
<path d="M361.878 228.257C361.878 220.529 360.933 213.03 359.164 205.853C342.634 179.552 313.369 162.07 280.006 162.07C228.408 162.07 186.574 203.891 186.574 255.493C186.574 263.221 187.519 270.719 189.288 277.897C205.818 304.198 235.083 321.68 268.445 321.68C320.044 321.68 361.878 279.859 361.878 228.257Z" fill="url(#paint29_linear_1756_2244)"/>
<path d="M346.628 293.119C344.51 285.905 318.198 259.173 301.017 261.3C283.836 263.417 292.738 246.871 281.287 250.052C269.827 253.233 265.16 243.479 273.008 237.319C280.856 231.167 297.405 253.444 297.194 239.015C296.983 224.585 306.105 216.949 318.62 209.524C331.134 202.098 323.286 197.222 312.679 194.041C302.071 190.86 286.366 205.289 279.582 199.348C272.788 193.408 293.581 184.708 305.463 181.527C317.345 178.346 325.835 193.408 335.379 193.408C339.853 193.408 343.428 191.437 345.968 189.338C334.187 177.585 319.28 168.978 302.603 164.834C298.816 167.428 294.15 169.683 290.116 168.877C281.626 167.181 279.646 164.348 267.205 177.081C258.779 185.698 245.55 177.98 237.885 172.094C225.132 178.548 214.057 187.834 205.494 199.137C209.895 199.852 215.588 200.43 220.383 199.779C229.716 198.505 235.657 204.445 234.383 216.748C233.108 229.05 238.417 232.02 250.72 249.208C263.024 266.388 289.263 264.903 292.802 271.558C296.341 278.204 284.459 286.546 296.763 302.46C309.066 318.375 283.396 339.376 292.94 341.705C302.484 344.043 303.758 325.158 323.066 318.585C342.374 312.013 348.737 300.343 346.619 293.128L346.628 293.119Z" fill="url(#paint30_linear_1756_2244)"/>
<path d="M182.43 366.297C182.43 366.297 231.094 358.789 269.664 413.663C273.533 419.173 275.073 411.381 280.052 417.275C280.052 417.275 257.498 346.111 182.43 366.297Z" fill="url(#paint31_radial_1756_2244)"/>
<path d="M377.562 366.297C377.562 366.297 328.897 358.789 290.327 413.663C286.458 419.173 284.918 411.381 279.94 417.275C279.94 417.275 302.493 346.111 377.562 366.297Z" fill="url(#paint32_radial_1756_2244)"/>
<path d="M279.995 417.277C279.995 417.277 215.919 358.36 142.85 388.996L156.208 402.353C156.208 402.353 220.458 385.073 279.995 439.012V417.277Z" fill="url(#paint33_radial_1756_2244)"/>
<path d="M280 417.277C280 417.277 344.076 358.36 417.146 388.996L403.788 402.353C403.788 402.353 339.538 385.073 280 439.012V417.277Z" fill="url(#paint34_radial_1756_2244)"/>
</g>
<defs>
<radialGradient id="paint0_radial_1756_2244" cx="0" cy="0" r="1" gradientUnits="userSpaceOnUse" gradientTransform="translate(262.576 94.4158) scale(326.944 326.91)">
<stop stop-color="#FFCD0C"/>
<stop offset="1" stop-color="#F7941D"/>
</radialGradient>
<radialGradient id="paint1_radial_1756_2244" cx="0" cy="0" r="1" gradientUnits="userSpaceOnUse" gradientTransform="translate(262.576 94.4164) scale(326.944 326.91)">
<stop stop-color="#FFCD0C"/>
<stop offset="1" stop-color="#F7941D"/>
</radialGradient>
<radialGradient id="paint2_radial_1756_2244" cx="0" cy="0" r="1" gradientUnits="userSpaceOnUse" gradientTransform="translate(262.582 94.4158) scale(326.944 326.91)">
<stop stop-color="#FFCD0C"/>
<stop offset="1" stop-color="#F7941D"/>
</radialGradient>
<radialGradient id="paint3_radial_1756_2244" cx="0" cy="0" r="1" gradientUnits="userSpaceOnUse" gradientTransform="translate(262.585 94.4157) scale(326.944 326.91)">
<stop stop-color="#FFCD0C"/>
<stop offset="1" stop-color="#F7941D"/>
</radialGradient>
<radialGradient id="paint4_radial_1756_2244" cx="0" cy="0" r="1" gradientUnits="userSpaceOnUse" gradientTransform="translate(262.58 94.4175) scale(326.944 326.91)">
<stop stop-color="#FFCD0C"/>
<stop offset="1" stop-color="#F7941D"/>
</radialGradient>
<radialGradient id="paint5_radial_1756_2244" cx="0" cy="0" r="1" gradientUnits="userSpaceOnUse" gradientTransform="translate(262.578 94.4176) scale(326.944 326.91)">
<stop stop-color="#FFCD0C"/>
<stop offset="1" stop-color="#F7941D"/>
</radialGradient>
<radialGradient id="paint6_radial_1756_2244" cx="0" cy="0" r="1" gradientUnits="userSpaceOnUse" gradientTransform="translate(262.585 94.4165) scale(326.944 326.91)">
<stop stop-color="#FFCD0C"/>
<stop offset="1" stop-color="#F7941D"/>
</radialGradient>
<radialGradient id="paint7_radial_1756_2244" cx="0" cy="0" r="1" gradientUnits="userSpaceOnUse" gradientTransform="translate(262.584 94.4183) scale(326.944 326.91)">
<stop stop-color="#FFCD0C"/>
<stop offset="1" stop-color="#F7941D"/>
</radialGradient>
<radialGradient id="paint8_radial_1756_2244" cx="0" cy="0" r="1" gradientUnits="userSpaceOnUse" gradientTransform="translate(262.579 94.4146) scale(326.944 326.91)">
<stop stop-color="#FFCD0C"/>
<stop offset="1" stop-color="#F7941D"/>
</radialGradient>
<radialGradient id="paint9_radial_1756_2244" cx="0" cy="0" r="1" gradientUnits="userSpaceOnUse" gradientTransform="translate(262.573 94.417) scale(326.944 326.91)">
<stop stop-color="#FFCD0C"/>
<stop offset="1" stop-color="#F7941D"/>
</radialGradient>
<radialGradient id="paint10_radial_1756_2244" cx="0" cy="0" r="1" gradientUnits="userSpaceOnUse" gradientTransform="translate(262.576 94.4132) scale(326.944 326.91)">
<stop stop-color="#FFCD0C"/>
<stop offset="1" stop-color="#F7941D"/>
</radialGradient>
<radialGradient id="paint11_radial_1756_2244" cx="0" cy="0" r="1" gradientUnits="userSpaceOnUse" gradientTransform="translate(262.575 94.4154) scale(326.944 326.91)">
<stop stop-color="#FFCD0C"/>
<stop offset="1" stop-color="#F7941D"/>
</radialGradient>
<radialGradient id="paint12_radial_1756_2244" cx="0" cy="0" r="1" gradientUnits="userSpaceOnUse" gradientTransform="translate(262.579 94.4167) scale(326.944 326.91)">
<stop stop-color="#FFCD0C"/>
<stop offset="1" stop-color="#F7941D"/>
</radialGradient>
<radialGradient id="paint13_radial_1756_2244" cx="0" cy="0" r="1" gradientUnits="userSpaceOnUse" gradientTransform="translate(262.585 94.416) scale(326.944 326.91)">
<stop stop-color="#FFCD0C"/>
<stop offset="1" stop-color="#F7941D"/>
</radialGradient>
<radialGradient id="paint14_radial_1756_2244" cx="0" cy="0" r="1" gradientUnits="userSpaceOnUse" gradientTransform="translate(303.058 122.46) scale(326.944 326.91)">
<stop stop-color="#FFCD0C"/>
<stop offset="1" stop-color="#F7941D"/>
</radialGradient>
<radialGradient id="paint15_radial_1756_2244" cx="0" cy="0" r="1" gradientUnits="userSpaceOnUse" gradientTransform="translate(303.051 94.4164) scale(326.944 326.91)">
<stop stop-color="#FFCD0C"/>
<stop offset="1" stop-color="#F7941D"/>
</radialGradient>
<radialGradient id="paint16_radial_1756_2244" cx="0" cy="0" r="1" gradientUnits="userSpaceOnUse" gradientTransform="translate(303.057 94.4158) scale(326.944 326.91)">
<stop stop-color="#FFCD0C"/>
<stop offset="1" stop-color="#F7941D"/>
</radialGradient>
<radialGradient id="paint17_radial_1756_2244" cx="0" cy="0" r="1" gradientUnits="userSpaceOnUse" gradientTransform="translate(303.055 94.4157) scale(326.944 326.91)">
<stop stop-color="#FFCD0C"/>
<stop offset="1" stop-color="#F7941D"/>
</radialGradient>
<radialGradient id="paint18_radial_1756_2244" cx="0" cy="0" r="1" gradientUnits="userSpaceOnUse" gradientTransform="translate(303.053 94.4175) scale(326.944 326.91)">
<stop stop-color="#FFCD0C"/>
<stop offset="1" stop-color="#F7941D"/>
</radialGradient>
<radialGradient id="paint19_radial_1756_2244" cx="0" cy="0" r="1" gradientUnits="userSpaceOnUse" gradientTransform="translate(303.051 94.4176) scale(326.944 326.91)">
<stop stop-color="#FFCD0C"/>
<stop offset="1" stop-color="#F7941D"/>
</radialGradient>
<radialGradient id="paint20_radial_1756_2244" cx="0" cy="0" r="1" gradientUnits="userSpaceOnUse" gradientTransform="translate(303.042 94.4165) scale(326.944 326.91)">
<stop stop-color="#FFCD0C"/>
<stop offset="1" stop-color="#F7941D"/>
</radialGradient>
<radialGradient id="paint21_radial_1756_2244" cx="0" cy="0" r="1" gradientUnits="userSpaceOnUse" gradientTransform="translate(303.045 94.4183) scale(326.944 326.91)">
<stop stop-color="#FFCD0C"/>
<stop offset="1" stop-color="#F7941D"/>
</radialGradient>
<radialGradient id="paint22_radial_1756_2244" cx="0" cy="0" r="1" gradientUnits="userSpaceOnUse" gradientTransform="translate(303.063 94.4146) scale(326.944 326.91)">
<stop stop-color="#FFCD0C"/>
<stop offset="1" stop-color="#F7941D"/>
</radialGradient>
<radialGradient id="paint23_radial_1756_2244" cx="0" cy="0" r="1" gradientUnits="userSpaceOnUse" gradientTransform="translate(303.058 94.417) scale(326.944 326.91)">
<stop stop-color="#FFCD0C"/>
<stop offset="1" stop-color="#F7941D"/>
</radialGradient>
<radialGradient id="paint24_radial_1756_2244" cx="0" cy="0" r="1" gradientUnits="userSpaceOnUse" gradientTransform="translate(303.056 94.4132) scale(326.944 326.91)">
<stop stop-color="#FFCD0C"/>
<stop offset="1" stop-color="#F7941D"/>
</radialGradient>
<radialGradient id="paint25_radial_1756_2244" cx="0" cy="0" r="1" gradientUnits="userSpaceOnUse" gradientTransform="translate(303.056 94.4154) scale(326.944 326.91)">
<stop stop-color="#FFCD0C"/>
<stop offset="1" stop-color="#F7941D"/>
</radialGradient>
<radialGradient id="paint26_radial_1756_2244" cx="0" cy="0" r="1" gradientUnits="userSpaceOnUse" gradientTransform="translate(303.048 94.4147) scale(326.944 326.91)">
<stop stop-color="#FFCD0C"/>
<stop offset="1" stop-color="#F7941D"/>
</radialGradient>
<radialGradient id="paint27_radial_1756_2244" cx="0" cy="0" r="1" gradientUnits="userSpaceOnUse" gradientTransform="translate(303.048 94.416) scale(326.944 326.91)">
<stop stop-color="#FFCD0C"/>
<stop offset="1" stop-color="#F7941D"/>
</radialGradient>
<linearGradient id="paint28_linear_1756_2244" x1="352.523" y1="142.946" x2="203.435" y2="374.366" gradientUnits="userSpaceOnUse">
<stop stop-color="#00AEEF"/>
<stop offset="0.44" stop-color="#0C95D9"/>
<stop offset="1" stop-color="#1C75BC"/>
</linearGradient>
<linearGradient id="paint29_linear_1756_2244" x1="307.382" y1="384.255" x2="260.02" y2="180.806" gradientUnits="userSpaceOnUse">
<stop stop-color="#00AEEF"/>
<stop offset="1" stop-color="#4EC9F5"/>
</linearGradient>
<linearGradient id="paint30_linear_1756_2244" x1="325.248" y1="173.497" x2="239.071" y2="307.263" gradientUnits="userSpaceOnUse">
<stop stop-color="#00AEEF"/>
<stop offset="0.44" stop-color="#0C95D9"/>
<stop offset="1" stop-color="#1C75BC"/>
</linearGradient>
<radialGradient id="paint31_radial_1756_2244" cx="0" cy="0" r="1" gradientUnits="userSpaceOnUse" gradientTransform="translate(232.313 367.003) scale(70.9337 70.9263)">
<stop stop-color="#FFCD0C"/>
<stop offset="1" stop-color="#F7941D"/>
</radialGradient>
<radialGradient id="paint32_radial_1756_2244" cx="0" cy="0" r="1" gradientUnits="userSpaceOnUse" gradientTransform="translate(327.678 367.003) rotate(180) scale(70.9337 70.9263)">
<stop stop-color="#FFCD0C"/>
<stop offset="1" stop-color="#F7941D"/>
</radialGradient>
<radialGradient id="paint33_radial_1756_2244" cx="0" cy="0" r="1" gradientUnits="userSpaceOnUse" gradientTransform="translate(211.427 409.586) scale(52.7625 52.7569)">
<stop stop-color="#FFCD0C"/>
<stop offset="1" stop-color="#F7941D"/>
</radialGradient>
<radialGradient id="paint34_radial_1756_2244" cx="0" cy="0" r="1" gradientUnits="userSpaceOnUse" gradientTransform="translate(348.568 409.586) rotate(180) scale(52.7625 52.7569)">
<stop stop-color="#FFCD0C"/>
<stop offset="1" stop-color="#F7941D"/>
</radialGradient>
<clipPath id="clip0_1756_2244">
<rect width="380" height="317" fill="white" transform="translate(90 122)"/>
</clipPath>
</defs>
</svg>
